<svg width="29" height="29" viewBox="0 0 29 29" fill="none" xmlns="http://www.w3.org/2000/svg">
<path d="M14.0707 9.32178C13.2452 9.32282 12.4538 9.6512 11.8702 10.2349C11.2865 10.8186 10.9581 11.61 10.957 12.4354H12.54C12.54 11.5909 13.227 10.9047 14.0707 10.9047C14.9144 10.9047 15.6014 11.5909 15.6014 12.4354C15.6014 12.9087 15.2207 13.2522 14.639 13.7224C14.4489 13.8712 14.2664 14.0295 14.092 14.1964C13.3022 14.9855 13.2792 15.8237 13.2792 15.9171V16.445H14.8621L14.8614 15.944C14.8621 15.9313 14.8875 15.6385 15.2104 15.3164C15.3291 15.1977 15.4787 15.0789 15.6338 14.9539C16.2504 14.4545 17.1835 13.7002 17.1835 12.4354C17.1829 11.61 16.8548 10.8185 16.2712 10.2347C15.6875 9.65095 14.8961 9.32262 14.0707 9.32178ZM13.2792 17.2365H14.8621V18.8194H13.2792V17.2365Z" fill="black"/>
<path d="M14.0705 6.15576C9.7063 6.15576 6.15576 9.7063 6.15576 14.0705C6.15576 18.4346 9.7063 21.9852 14.0705 21.9852C18.4346 21.9852 21.9852 18.4346 21.9852 14.0705C21.9852 9.7063 18.4346 6.15576 14.0705 6.15576ZM14.0705 20.4022C10.5793 20.4022 7.7387 17.5616 7.7387 14.0705C7.7387 10.5793 10.5793 7.7387 14.0705 7.7387C17.5616 7.7387 20.4022 10.5793 20.4022 14.0705C20.4022 17.5616 17.5616 20.4022 14.0705 20.4022Z" fill="black"/>
</svg>
